<svg id="svg2" xmlns="http://www.w3.org/2000/svg" xmlns:xlink="http://www.w3.org/1999/xlink" viewBox="0 0 226.39 119.46"><defs><style>.cls-1{fill:#fff;}.cls-2{fill:url(#grad_2);}.cls-3{fill:url(#grad_2-2);}.cls-4{fill:url(#grad_2-3);}.cls-5{fill:url(#grad);}.cls-6{fill:url(#grad-2);}.cls-7{fill:url(#grad-3);}.cls-8{fill:#326292;}.cls-9{fill:#f5c53a;}</style><linearGradient id="grad_2" x1="417.22" y1="-322.51" x2="382.08" y2="-272.79" gradientTransform="matrix(0.56, 0, 0, -0.57, -54.46, -96.31)" gradientUnits="userSpaceOnUse"><stop offset="0" stop-color="#ffd43b"/><stop offset="1" stop-color="#ffe873"/></linearGradient><linearGradient id="grad_2-2" x1="374.35" y1="-322.51" x2="339.21" y2="-272.79" xlink:href="#grad_2"/><linearGradient id="grad_2-3" x1="331.23" y1="-322.51" x2="296.09" y2="-272.79" xlink:href="#grad_2"/><linearGradient id="grad" x1="108.78" y1="-186.6" x2="207.19" y2="-271.26" gradientTransform="matrix(0.56, 0, 0, -0.57, -54.46, -96.31)" gradientUnits="userSpaceOnUse"><stop offset="0" stop-color="#5a9fd4"/><stop offset="1" stop-color="#306998"/></linearGradient><linearGradient id="grad-2" x1="151.91" y1="-186.6" x2="250.31" y2="-271.26" xlink:href="#grad"/><linearGradient id="grad-3" x1="194.78" y1="-186.6" x2="293.18" y2="-271.26" xlink:href="#grad"/></defs><title>logo</title><rect class="cls-1" width="226.39" height="119.46"/><g id="g2303"><path id="path1950" class="cls-2" d="M183.25,32.65V43.4a15.52,15.52,0,0,1-15.12,15.35H144A12.35,12.35,0,0,0,131.86,71v23c0,6.56,5.7,10.42,12.1,12.3a40.49,40.49,0,0,0,24.17,0c6.09-1.76,12.1-5.31,12.1-12.3V84.87H156.06V81.79h36.28c7,0,9.65-4.91,12.1-12.27,2.53-7.58,2.42-14.87,0-24.6-1.74-7-5.06-12.27-12.1-12.27h-9.08ZM169.66,91a4.61,4.61,0,1,1-4.54,4.6A4.57,4.57,0,0,1,169.66,91Z" transform="translate(4.46 1.95)"/><path id="path1950-2" data-name="path1950" class="cls-3" d="M159.13,32.65V43.4A15.52,15.52,0,0,1,144,58.75H119.84A12.35,12.35,0,0,0,107.74,71v23c0,6.56,5.7,10.42,12.1,12.3a40.49,40.49,0,0,0,24.17,0c6.09-1.76,12.1-5.31,12.1-12.3V84.87H131.94V81.79h36.28c7,0,9.65-4.91,12.1-12.27,2.53-7.58,2.42-14.87,0-24.6-1.74-7-5.06-12.27-12.1-12.27h-9.08ZM145.54,91a4.61,4.61,0,1,1-4.54,4.6A4.57,4.57,0,0,1,145.54,91Z" transform="translate(4.46 1.95)"/><path id="path1950-3" data-name="path1950" class="cls-4" d="M134.87,32.65V43.4a15.52,15.52,0,0,1-15.12,15.35H95.58A12.35,12.35,0,0,0,83.48,71v23c0,6.56,5.7,10.42,12.1,12.3a40.49,40.49,0,0,0,24.17,0c6.09-1.76,12.1-5.31,12.1-12.3V84.87H107.68V81.79H144c7,0,9.65-4.91,12.1-12.27,2.53-7.58,2.42-14.87,0-24.6-1.74-7-5.06-12.27-12.1-12.27h-9.08ZM121.28,91a4.61,4.61,0,1,1-4.54,4.6A4.57,4.57,0,0,1,121.28,91Z" transform="translate(4.46 1.95)"/><circle class="cls-1" cx="149.99" cy="97.57" r="4.56"/><circle class="cls-1" cx="125.73" cy="97.57" r="4.56"/><path id="path1948" class="cls-5" d="M58.77,6.79a69.11,69.11,0,0,0-11.57,1C37,9.58,35.1,13.37,35.1,20.35v9.22h24.2v3.07H26c-7,0-13.19,4.23-15.12,12.27-2.22,9.22-2.32,15,0,24.6,1.72,7.17,5.83,12.27,12.86,12.27h8.32V70.73a15.38,15.38,0,0,1,15.12-15H71.38a12.19,12.19,0,0,0,12.1-12.3v-23c0-6.56-5.53-11.49-12.1-12.58A75.49,75.49,0,0,0,58.77,6.79ZM45.68,14.21a4.61,4.61,0,1,1-4.54,4.63A4.59,4.59,0,0,1,45.68,14.21Z" transform="translate(4.46 1.95)"/><path id="path1948-2" data-name="path1948" class="cls-6" d="M83,6.79a69.11,69.11,0,0,0-11.57,1c-10.24,1.81-12.1,5.6-12.1,12.58v9.22h24.2v3.07H50.28c-7,0-13.19,4.23-15.12,12.27-2.22,9.22-2.32,15,0,24.6C36.88,76.69,41,81.79,48,81.79h8.32V70.73a15.38,15.38,0,0,1,15.12-15H95.64a12.19,12.19,0,0,0,12.1-12.3v-23c0-6.56-5.53-11.49-12.1-12.58A75.49,75.49,0,0,0,83,6.79ZM69.94,14.21a4.61,4.61,0,1,1-4.54,4.63A4.59,4.59,0,0,1,69.94,14.21Z" transform="translate(4.46 1.95)"/><path id="path1948-3" data-name="path1948" class="cls-7" d="M107.15,6.79a69.11,69.11,0,0,0-11.57,1c-10.24,1.81-12.1,5.6-12.1,12.58v9.22h24.2v3.07H74.4c-7,0-13.19,4.23-15.12,12.27-2.22,9.22-2.32,15,0,24.6C61,76.69,65.11,81.79,72.14,81.79h8.32V70.73a15.38,15.38,0,0,1,15.12-15h24.17a12.19,12.19,0,0,0,12.1-12.3v-23c0-6.56-5.53-11.49-12.1-12.58A75.49,75.49,0,0,0,107.15,6.79ZM94.06,14.21a4.61,4.61,0,1,1-4.54,4.63A4.59,4.59,0,0,1,94.06,14.21Z" transform="translate(4.46 1.95)"/><circle class="cls-1" cx="98.51" cy="20.76" r="4.56"/><circle class="cls-1" cx="74.4" cy="20.76" r="4.56"/><path class="cls-8" d="M143.63,26.55l-0.68-.13a4.73,4.73,0,0,0-.7-0.05,4.59,4.59,0,0,0-.68.05,5.06,5.06,0,0,0-.62.13l1.2-2.71q0.29-.61.63-1.42t0.72-1.72l0.79-1.92,0.82-2,0.51-1.32q0.29-.74.55-1.47t0.49-1.31l0.33-.83q0.35,0.08.71,0.13a5.16,5.16,0,0,0,.71.05,5.31,5.31,0,0,0,.73-0.05q0.37-.05.71-0.13,0.22,0.73.57,1.72t0.74,2.08q0.4,1.09.82,2.18l0.79,2,0.77,1.92,0.64,1.58q0.31,0.74.64,1.5t0.76,1.67a8.24,8.24,0,0,0-1.33-.15l-1.35,0q-0.65,0-1.32.05t-1.32.13q-0.2-.77-0.42-1.49t-0.48-1.43h-4.83a13.88,13.88,0,0,0-.49,1.45Q143.85,25.81,143.63,26.55Zm1.51-4.75,0.45,0h2.69l0.45,0L147,17Z" transform="translate(4.46 1.95)"/><path class="cls-8" d="M162,23.29q0,1.78.17,3.25a10.88,10.88,0,0,0-1.23-.14q-0.66,0-1.32,0t-1.29.06l-1.14.12q0.1-1.71.15-3.37t0.05-3.37q0-.41,0-1t0-1.23q0-.65,0-1.25t0-1q0-.71,0-1.61t-0.12-1.75l1.22,0.12q0.69,0.06,1.26.06t1.31-.05q0.67-.05,1.2-0.13-0.1,1.47-.16,2.9t-0.06,2.9v2Q161.95,21.51,162,23.29Z" transform="translate(4.46 1.95)"/><path class="cls-8" d="M172.65,11.76a10.93,10.93,0,0,1,3.28.48,7.74,7.74,0,0,1,2.66,1.42A6.57,6.57,0,0,1,180.38,16a7.48,7.48,0,0,1,.64,3.19,7.91,7.91,0,0,1-.65,3.33,6.59,6.59,0,0,1-1.78,2.36,7.23,7.23,0,0,1-2.68,1.38,12.15,12.15,0,0,1-3.33.44,10.25,10.25,0,0,1-3.16-.48,7.6,7.6,0,0,1-2.61-1.43A6.68,6.68,0,0,1,165,22.42a7.5,7.5,0,0,1-.64-3.17A7.77,7.77,0,0,1,165,16a6.62,6.62,0,0,1,1.74-2.35,7.46,7.46,0,0,1,2.62-1.43A10.74,10.74,0,0,1,172.65,11.76Zm0.16,13.3a2.63,2.63,0,0,0,1.26-.29A2.89,2.89,0,0,0,175,24a3.78,3.78,0,0,0,.59-1.07,7.93,7.93,0,0,0,.35-1.25,10.4,10.4,0,0,0,.16-1.3q0-.65,0-1.2a17.29,17.29,0,0,0-.11-1.89,6.93,6.93,0,0,0-.47-1.88,3.66,3.66,0,0,0-1-1.44,2.76,2.76,0,0,0-1.83-.57,2.67,2.67,0,0,0-1.74.54,3.66,3.66,0,0,0-1,1.36,6.23,6.23,0,0,0-.49,1.78,14.48,14.48,0,0,0-.12,1.81q0,0.63,0,1.34a10.46,10.46,0,0,0,.15,1.39,7.72,7.72,0,0,0,.35,1.3,3.68,3.68,0,0,0,.62,1.09,2.83,2.83,0,0,0,1,.75A3.24,3.24,0,0,0,172.82,25.06Z" transform="translate(4.46 1.95)"/><path class="cls-9" d="M35.33,91.51A3.39,3.39,0,0,0,33.4,91a3.54,3.54,0,0,0-1.9.47,3.66,3.66,0,0,0-1.21,1.22,5.3,5.3,0,0,0-.65,1.7,10.59,10.59,0,0,0-.21,1.91,15.21,15.21,0,0,0,.14,2.05,6,6,0,0,0,.56,1.89,3.63,3.63,0,0,0,1.19,1.38,3.46,3.46,0,0,0,2,.54,4.55,4.55,0,0,0,1.27-.16,4.81,4.81,0,0,0,1-.43A6.69,6.69,0,0,0,36.5,101q0.39-.31.71-0.61l0.63,0.35q-0.18.59-.35,1.19T37.2,103.1q-0.92.33-2.07,0.62a10.85,10.85,0,0,1-2.68.3,9.63,9.63,0,0,1-3.07-.48,7,7,0,0,1-2.5-1.43,6.8,6.8,0,0,1-1.67-2.3,7.38,7.38,0,0,1-.61-3.07,7.7,7.7,0,0,1,.65-3.25A7,7,0,0,1,27,91.08a7.65,7.65,0,0,1,2.66-1.48A10.45,10.45,0,0,1,33,89.1a11.54,11.54,0,0,1,2.48.28,16.59,16.59,0,0,1,2.42.72q-0.06.35-.15,0.68t-0.17.68q-0.1.43-.16,0.85l-0.12.85H36.42A2.63,2.63,0,0,0,35.33,91.51Z" transform="translate(4.46 1.95)"/><path class="cls-9" d="M39.76,92.09q0-.56,0-1.13t-0.06-1.19q0-.62-0.07-1.38a11.1,11.1,0,0,0,1.14.14q0.57,0,1.14,0t1.13,0a10.33,10.33,0,0,0,1.11-.14q0,0.8-.07,1.7L44,91.88q0,0.88-.05,1.61t0,1.18l0,0a3.63,3.63,0,0,1,1.43-1.17A3.91,3.91,0,0,1,47,93.14a3.57,3.57,0,0,1,2.69.9,3.77,3.77,0,0,1,.86,2.69v0.61q0,0.35,0,.72t0,0.76v2.57q0,0.45,0,.9t0,0.87q0,0.42,0,.72l-1-.11a9.9,9.9,0,0,0-1.21-.07,10.83,10.83,0,0,0-1.11.06l-1.11.12q0.08-1.53.12-3t0-3c0-.27,0-0.54,0-0.8a2.62,2.62,0,0,0-.13-0.71,1.14,1.14,0,0,0-.35-0.52,1,1,0,0,0-.66-0.19,0.82,0.82,0,0,0-.66.28,1.66,1.66,0,0,0-.34.7,5,5,0,0,0-.12,1q0,0.55,0,1.1v1.84q0,1.18,0,1.94t0.09,1.39L43,103.76q-0.56-.05-1.15-0.05a10.44,10.44,0,0,0-1.11.06l-1.11.12q0.06-1,.12-2t0.06-2.1V93.28Q39.77,92.65,39.76,92.09Z" transform="translate(4.46 1.95)"/><path class="cls-9" d="M52.23,101.18a3,3,0,0,1,.28-1.36,2.56,2.56,0,0,1,.77-0.91,4.6,4.6,0,0,1,1.18-.61q0.68-.24,1.48-0.47l1.15-.32a3,3,0,0,0,.67-0.28,0.76,0.76,0,0,0,.32-0.33,1.16,1.16,0,0,0,.08-0.47,1.62,1.62,0,0,0-.13-0.7,1,1,0,0,0-.38-0.43,1.51,1.51,0,0,0-.57-0.2,4.6,4.6,0,0,0-.69-0.05,3.43,3.43,0,0,0-1.29.25,1.89,1.89,0,0,0-1,.86l-0.59,0L53.15,94.3a10.24,10.24,0,0,1,2.15-.88,8.81,8.81,0,0,1,2.32-.29,6.76,6.76,0,0,1,2,.26,4.27,4.27,0,0,1,1.4.7,2.75,2.75,0,0,1,.82,1,3,3,0,0,1,.27,1.24c0,0.26,0,.57,0,0.93s0,0.73,0,1.1,0,0.73,0,1.08,0,0.64,0,.89,0,0.47,0,.68a2.25,2.25,0,0,0,.08.56,0.81,0.81,0,0,0,.21.38,0.58,0.58,0,0,0,.41.13,1.51,1.51,0,0,0,.75-0.22l0,0.31a2.15,2.15,0,0,0,0,.31,1.79,1.79,0,0,0,0,.28l0,0.28a4.28,4.28,0,0,1-1.35.66,5,5,0,0,1-1.43.23,4.64,4.64,0,0,1-.88-0.07,2,2,0,0,1-.63-0.22,2.22,2.22,0,0,1-.47-0.36,4.86,4.86,0,0,1-.37-0.41,3.54,3.54,0,0,1-1.32.8,4.67,4.67,0,0,1-1.54.26,5.63,5.63,0,0,1-1.3-.14,2.62,2.62,0,0,1-1-.49,2.35,2.35,0,0,1-.68-0.88A3.05,3.05,0,0,1,52.23,101.18Zm4-.45a2.3,2.3,0,0,0,.17.93,0.67,0.67,0,0,0,.68.4,1,1,0,0,0,.72-0.27,0.93,0.93,0,0,0,.26-0.67V98.51a8.94,8.94,0,0,0-1,.42,1.74,1.74,0,0,0-.56.44,1.28,1.28,0,0,0-.25.56A4.35,4.35,0,0,0,56.27,100.73Z" transform="translate(4.46 1.95)"/><path class="cls-9" d="M64.73,97q0-1.1,0-2T64.55,93.2q0.51,0.08,1.07.13t1.09,0.05a12.12,12.12,0,0,0,2.12-.18,15.75,15.75,0,0,1-.12,1.59,7.81,7.81,0,0,1,.72-0.71,4.47,4.47,0,0,1,.74-0.52A3.24,3.24,0,0,1,71,93.24a4.23,4.23,0,0,1,1-.1,3.49,3.49,0,0,1,2.59.89,3.55,3.55,0,0,1,.88,2.6V97.4q0,0.43,0,.88c0,0.3,0,.59,0,0.88v1.65q0,0.75,0,1.59t0.05,1.49q-0.55-.08-1.1-0.13t-1.1-.05q-0.53,0-1.12.05t-1.12.13q0.08-1.53.12-3t0-3c0-.27,0-0.54,0-0.8A2.62,2.62,0,0,0,71,96.39a1.18,1.18,0,0,0-.34-0.52,0.94,0.94,0,0,0-.63-0.19,0.86,0.86,0,0,0-.68.26,1.67,1.67,0,0,0-.35.69,4.56,4.56,0,0,0-.13,1q0,0.55,0,1.12v1.84q0,1.18,0,1.94T69,103.89q-0.59,0-1.15-.11a9.08,9.08,0,0,0-1.15-.07,9.88,9.88,0,0,0-1.09.06l-1.09.12q0.12-1.31.16-2.63t0-2.67V97Z" transform="translate(4.46 1.95)"/></g></svg>